<mxfile host="app.diagrams.net" modified="2024-04-08T17:58:30.976Z" agent="Mozilla/5.0 (Macintosh; Intel Mac OS X 10_15_7) AppleWebKit/537.36 (KHTML, like Gecko) Chrome/123.0.0.0 Safari/537.36" version="24.2.2" etag="X4w6-RVXqeuUsebdCmry" type="github">
  <diagram name="Page-1" id="zj-37GiLxXO4VpIh3VPn">
    <mxGraphModel>
      <root>
        <mxCell id="0" />
        <mxCell id="1" parent="0" />
      </root>
    </mxGraphModel>
  </diagram>
</mxfile>
